<svg width="25" height="25" viewBox="0 0 25 25" fill="none" xmlns="http://www.w3.org/2000/svg">
<circle cx="12.5" cy="12.5" r="12.5" fill="#505772"/>
<path d="M6.10511 10.2257H8.80682V18.9018H6.10511V10.2257ZM7.45397 5.90747C8.31591 5.90747 9.01648 6.60804 9.01648 7.46997C9.01648 8.3319 8.31591 9.03418 7.45454 9.03418C7.03991 9.03328 6.64252 8.86821 6.34928 8.57507C6.05604 8.28194 5.89082 7.8846 5.88977 7.46997C5.88977 7.26464 5.93024 7.06132 6.00887 6.87164C6.0875 6.68195 6.20275 6.50963 6.34802 6.36451C6.49329 6.2194 6.66574 6.10434 6.85551 6.02592C7.04528 5.9475 7.24864 5.90725 7.45397 5.90747ZM10.4937 10.2257H13.0801V11.4114H13.1159C13.4761 10.7296 14.3557 10.0103 15.6727 10.0103C18.4034 10.0103 18.9074 11.8075 18.9074 14.1433V18.9024H16.2125V14.6819C16.2125 13.6762 16.1943 12.3808 14.8114 12.3808C13.408 12.3808 13.192 13.4774 13.192 14.608V18.9001H10.4977V10.2239L10.4937 10.2257Z" fill="white"/>
</svg>
