<svg width="288" height="419" viewBox="0 0 288 419" fill="none" xmlns="http://www.w3.org/2000/svg">
<path fill-rule="evenodd" clip-rule="evenodd" d="M151.902 48.4472L169.376 9.17511C172.146 3.69348 177.192 0.96839 184.512 1.00028L207.372 4.12013C213.719 4.98613 214.231 5.06256 216.961 8.50895C219.691 11.9545 219.902 15.9625 217.595 20.5303L178.421 111.421L151.902 48.4472H151.902ZM64.1136 374.504L142.508 374.851L220.532 374.506C200.252 328.863 180.424 283.563 161.049 238.605C141.574 193.419 121.875 147.203 101.953 99.9554L-35.2953 408.404C-38.0649 413.886 -43.1097 416.61 -50.4297 416.579L-73.0779 416.479C-79.483 416.45 -84.0512 414.714 -86.7805 411.267C-89.5114 407.821 -89.7217 403.813 -87.4143 399.246L60.2189 70.239L60.2137 71.6126C62.9866 65.2143 68.3871 59.8585 76.4127 55.5448C84.4388 51.2304 92.7981 49.0922 101.491 49.1298L101.814 49.1322V49.1326C109.945 49.2258 118.177 51.4355 126.511 55.7655C134.957 60.1527 140.538 65.5571 143.253 71.9791L143.259 70.6064C167.722 126.115 191.5 181.164 214.593 235.751C237.685 290.339 261.463 345.386 285.925 400.896C287.734 405.481 287.26 409.487 284.5 412.908C281.739 416.33 277.156 418.027 270.751 417.998L142.507 417.431L13.9019 418C7.4976 418.029 2.9143 416.331 0.153607 412.91C-2.60708 409.488 -3.08082 405.483 -1.27209 400.898C4.19457 388.492 9.69185 375.915 15.2059 363.217L16.0553 361.26L16.8611 359.404L17.5067 357.914L18.5167 355.584L18.9589 354.563L20.1735 351.757L20.4116 351.207L21.8307 347.924L21.865 347.845L23.3189 344.48L23.4892 344.086L24.7735 341.11L25.148 340.242L26.2286 337.736L26.8073 336.392L27.6837 334.358L28.4674 332.538L29.1396 330.977L30.1275 328.679L30.5955 327.591L31.7884 324.815L32.0514 324.202L33.4493 320.947L33.5077 320.811L34.9644 317.416L35.1102 317.076L36.4211 314.019L36.7715 313.201L37.8779 310.62L38.4329 309.323L39.3346 307.218L40.0946 305.443L40.7909 303.814L41.7555 301.559L42.2476 300.409L43.4164 297.674L43.7039 297.001L45.0769 293.787L45.1598 293.592L46.6157 290.182L46.7374 289.897L48.0712 286.771L48.3974 286.007L49.5262 283.36L50.0563 282.116L50.9809 279.948L51.7152 278.224L52.4352 276.535L53.3736 274.333L53.8886 273.123L55.3421 269.711L56.6873 266.55L56.7943 266.298L58.2461 262.887L58.3433 262.66L59.6971 259.476L59.9977 258.77L61.1473 256.066L61.6512 254.881L62.5967 252.657L63.304 250.994L64.0448 249.25L64.9551 247.109L65.4925 245.844L66.6053 243.226L66.939 242.44L68.2544 239.346L68.3847 239.038L69.8287 235.639L69.9014 235.468L71.272 232.241L71.5472 231.594L72.714 228.847L73.1914 227.723L74.1548 225.454L74.8339 223.857L75.5939 222.066L76.4744 219.994L77.0319 218.681L78.1133 216.136L79.7501 212.282L79.9041 211.92L82.7697 205.176L83.0184 204.591L85.6284 198.449L86.2777 196.922L87.0553 195.093L87.9039 193.097L88.4805 191.741L89.5281 189.278L89.9038 188.395L91.1498 185.467L91.3254 185.054L94.1624 178.389L94.385 177.867L95.5779 175.066L95.9989 174.078L96.9913 171.748L97.6096 170.297L98.4027 168.438L99.2183 166.525L99.8116 165.134L100.823 162.763L101.218 161.836L102.426 159.008L102.623 158.547L104.025 155.264L129.665 223.499L65.5207 371.265H65.5203L64.1142 374.504L64.1136 374.504Z" fill="#FEFEFE" stroke="#1894D1"/>
</svg>
