<svg width="26" height="25" viewBox="0 0 26 25" fill="none" xmlns="http://www.w3.org/2000/svg">
<path d="M13.3182 25C20.2217 25 25.8182 19.4036 25.8182 12.5C25.8182 5.59644 20.2217 0 13.3182 0C6.41462 0 0.818176 5.59644 0.818176 12.5C0.818176 19.4036 6.41462 25 13.3182 25Z" fill="#505772"/>
<path d="M15.3315 25.0001V16.2092H18.333L18.7776 12.7363H15.3315V10.5657C15.3315 9.58893 15.665 8.93776 17.1102 8.93776H19V5.79041C18.6665 5.79041 17.5548 5.68188 16.332 5.68188C13.664 5.68188 11.7742 7.30982 11.7742 10.2401V12.7363H8.77271V16.2092H11.7742V25.0001H15.3315Z" fill="white"/>
</svg>
