<svg width="26" height="25" viewBox="0 0 26 25" fill="none" xmlns="http://www.w3.org/2000/svg">
<circle cx="12.5455" cy="12.5" r="12.5" fill="#505772"/>
<path d="M12.5454 4.29297C10.385 4.29297 10.1142 4.30213 9.26571 4.34083C8.41904 4.37946 7.8408 4.51396 7.33482 4.71057C6.81174 4.91387 6.36813 5.18589 5.92592 5.62813C5.48369 6.07036 5.21168 6.51404 5.00842 7.03715C4.81177 7.54314 4.67733 8.12141 4.63866 8.96812C4.59996 9.81662 4.59082 10.0875 4.59082 12.248C4.59082 14.4084 4.59996 14.6793 4.63866 15.5278C4.67733 16.3745 4.81177 16.9528 5.00842 17.4588C5.21171 17.9819 5.48372 18.4255 5.92592 18.8678C6.36816 19.31 6.81174 19.5821 7.33482 19.7854C7.8408 19.982 8.41904 20.1165 9.26571 20.1551C10.1142 20.1938 10.385 20.203 12.5454 20.203C14.7057 20.203 14.9766 20.1938 15.825 20.1551C16.6717 20.1165 17.2499 19.982 17.7559 19.7854C18.279 19.5821 18.7226 19.31 19.1648 18.8678C19.607 18.4255 19.879 17.9819 20.0823 17.4588C20.2789 16.9528 20.4134 16.3745 20.4521 15.5278C20.4907 14.6793 20.4999 14.4084 20.4999 12.248C20.4999 10.0875 20.4907 9.81662 20.4521 8.96812C20.4134 8.12141 20.2789 7.54314 20.0823 7.03715C19.879 6.51404 19.607 6.07036 19.1648 5.62813C18.7226 5.18589 18.279 4.91387 17.7559 4.71057C17.2499 4.51396 16.6717 4.37946 15.825 4.34083C14.9766 4.30213 14.7057 4.29297 12.5454 4.29297ZM12.5454 5.72629C14.6693 5.72629 14.9209 5.73441 15.7597 5.77269C16.5353 5.80805 16.9564 5.93764 17.2367 6.04658C17.608 6.19091 17.873 6.36327 18.1513 6.64164C18.4297 6.92001 18.6021 7.18503 18.7464 7.55633C18.8553 7.83664 18.9849 8.25787 19.0203 9.03347C19.0585 9.8723 19.0667 10.1239 19.0667 12.248C19.0667 14.372 19.0585 14.6236 19.0203 15.4625C18.9849 16.2381 18.8553 16.6593 18.7464 16.9396C18.6021 17.3109 18.4297 17.5759 18.1513 17.8543C17.873 18.1327 17.608 18.305 17.2367 18.4494C16.9564 18.5583 16.5352 18.6879 15.7597 18.7232C14.921 18.7615 14.6695 18.7696 12.5454 18.7696C10.4213 18.7696 10.1697 18.7615 9.33105 18.7232C8.55547 18.6879 8.13429 18.5583 7.85402 18.4494C7.48269 18.305 7.21771 18.1327 6.93938 17.8543C6.66103 17.5759 6.48865 17.3109 6.34433 16.9396C6.2354 16.6593 6.10583 16.2381 6.07045 15.4625C6.03218 14.6236 6.02406 14.372 6.02406 12.248C6.02406 10.1239 6.03218 9.8723 6.07045 9.03347C6.10583 8.25785 6.2354 7.83664 6.34433 7.55635C6.48865 7.185 6.66103 6.92001 6.93936 6.64167C7.21771 6.36327 7.48271 6.19091 7.85399 6.04658C8.13429 5.93764 8.55549 5.80805 9.33105 5.77269C10.1698 5.73441 10.4214 5.72629 12.5454 5.72629" fill="white"/>
<path d="M12.716 14.1743C11.5579 14.1743 10.6192 13.2355 10.6192 12.0774C10.6192 10.9193 11.5579 9.98053 12.716 9.98053C13.8739 9.98053 14.8127 10.9193 14.8127 12.0774C14.8127 13.2355 13.8739 14.1743 12.716 14.1743ZM12.716 8.84711C10.932 8.84711 9.48584 10.2933 9.48584 12.0774C9.48584 13.8614 10.932 15.3077 12.716 15.3077C14.4999 15.3077 15.946 13.8614 15.946 12.0774C15.946 10.2933 14.4999 8.84711 12.716 8.84711ZM16.8285 8.71948C16.8285 9.1364 16.4905 9.47434 16.0737 9.47434C15.6568 9.47434 15.3188 9.1364 15.3188 8.71948C15.3188 8.30258 15.6568 7.9646 16.0737 7.9646C16.4905 7.9646 16.8285 8.30258 16.8285 8.71948Z" fill="white"/>
</svg>
